<svg width="249" height="249" viewBox="0 0 249 249" fill="none" xmlns="http://www.w3.org/2000/svg">
<path d="M249 190.435H0V190.56H249V190.435Z" fill="#EBEBEB"/>
<path d="M86.2636 193.612H74.7199V193.737H86.2636V193.612Z" fill="#EBEBEB"/>
<path d="M228.467 196.282H200.246V196.406H228.467V196.282Z" fill="#EBEBEB"/>
<path d="M49.4962 196.282H21.2746V196.406H49.4962V196.282Z" fill="#EBEBEB"/>
<path d="M156.905 150.907H145.406V190.704H156.905V150.907Z" fill="#E6E6E6"/>
<path d="M148.763 150.907H137.264V190.704H148.763V150.907Z" fill="#E6E6E6"/>
<path d="M146.58 190.705H148.763V184.49H144.287L146.58 190.705Z" fill="#F0F0F0"/>
<path d="M90.9617 150.907H79.4624V190.704H90.9617V150.907Z" fill="#E6E6E6"/>
<path d="M148.763 150.907H89.0548V187.645H148.763V150.907Z" fill="#F0F0F0"/>
<path d="M145.046 179.38H121.66C120.405 179.377 119.389 178.36 119.386 177.105V154.74C119.388 153.485 120.405 152.468 121.66 152.465H145.042C146.297 152.468 147.313 153.485 147.316 154.74V177.105C147.313 178.358 146.299 179.374 145.046 179.38ZM121.66 152.974C120.684 152.974 119.892 153.764 119.889 154.74V177.105C119.879 178.083 120.663 178.885 121.641 178.896C121.647 178.896 121.654 178.896 121.66 178.896H145.042C146.02 178.904 146.819 178.117 146.827 177.139C146.827 177.128 146.827 177.116 146.827 177.105V154.741C146.825 153.764 146.033 152.974 145.056 152.974H121.66V152.974Z" fill="#E0E0E0"/>
<path d="M116.153 179.38H92.7714C91.5165 179.377 90.4995 178.36 90.4966 177.105V154.74C90.499 153.485 91.516 152.468 92.7714 152.465H116.153C117.409 152.465 118.427 153.484 118.427 154.74V177.105C118.427 178.361 117.409 179.38 116.153 179.38ZM92.7719 152.974C91.7963 152.974 91.0055 153.764 91.0055 154.74V177.105C91.0055 178.08 91.7963 178.871 92.7719 178.871H116.153C117.13 178.871 117.922 178.081 117.924 177.105V154.74C117.922 153.763 117.13 152.974 116.153 152.974H92.7719Z" fill="#E0E0E0"/>
<path d="M113.985 159.536C112.771 159.539 111.786 158.557 111.783 157.344C111.78 156.131 112.762 155.144 113.975 155.142C115.188 155.139 116.174 156.121 116.177 157.334C116.177 157.338 116.177 157.341 116.177 157.344C116.174 158.554 115.194 159.534 113.985 159.536Z" fill="#FAFAFA"/>
<path d="M123.834 159.536C122.62 159.544 121.63 158.567 121.622 157.354C121.614 156.14 122.591 155.15 123.805 155.142C125.018 155.134 126.008 156.111 126.016 157.325C126.016 157.336 126.016 157.347 126.016 157.359C126.008 158.56 125.035 159.531 123.834 159.536Z" fill="#FAFAFA"/>
<path d="M91.2376 190.705H89.0548V184.49H93.5319L91.2376 190.705Z" fill="#F0F0F0"/>
<path d="M87.2979 150.907H75.7986V190.704H87.2979V150.907Z" fill="#E6E6E6"/>
<path d="M85.1152 190.705H87.2979V184.49H82.8214L85.1152 190.705Z" fill="#F0F0F0"/>
<path d="M87.2984 150.907H27.5902V187.645H87.2984V150.907Z" fill="#F0F0F0"/>
<path d="M83.5813 179.38H60.1957C58.9388 179.38 57.9189 178.362 57.9164 177.105V154.74C57.9189 153.483 58.9388 152.465 60.1957 152.465H83.5768C84.8318 152.468 85.8487 153.485 85.8517 154.74V177.105C85.8482 178.358 84.8343 179.374 83.5813 179.38ZM60.1952 152.974C59.2187 152.974 58.4264 153.764 58.4239 154.74V177.105C58.4134 178.083 59.1978 178.885 60.1758 178.896C60.1823 178.896 60.1888 178.896 60.1952 178.896H83.5763C84.5544 178.904 85.3542 178.117 85.3622 177.139C85.3622 177.128 85.3622 177.116 85.3622 177.105V154.741C85.3597 153.766 84.5704 152.977 83.5958 152.974H60.1952V152.974Z" fill="#E0E0E0"/>
<path d="M54.6879 179.38H31.3068C30.0503 179.38 29.0319 178.361 29.0319 177.105V154.74C29.0319 153.484 30.0503 152.465 31.3068 152.465H54.6879C55.9428 152.468 56.9597 153.485 56.9627 154.74V177.105C56.9597 178.36 55.9428 179.377 54.6879 179.38ZM31.3068 152.974C30.3302 152.974 29.5379 153.764 29.5354 154.74V177.105C29.5249 178.083 30.3093 178.885 31.2873 178.896C31.2938 178.896 31.3003 178.896 31.3068 178.896H54.6879C55.6644 178.896 56.4568 178.105 56.4593 177.129V154.741C56.4568 153.764 55.6644 152.974 54.6879 152.974H31.3068V152.974Z" fill="#E0E0E0"/>
<path d="M52.5196 159.536C51.3059 159.539 50.3204 158.557 50.3174 157.344C50.3149 156.131 51.2965 155.144 52.5096 155.142C53.7232 155.139 54.7088 156.121 54.7118 157.334C54.7118 157.338 54.7118 157.341 54.7118 157.344C54.7118 158.555 53.7302 159.536 52.5196 159.536Z" fill="#FAFAFA"/>
<path d="M62.3685 159.536C61.1549 159.544 60.1649 158.567 60.1569 157.354C60.1489 156.14 61.126 155.15 62.3396 155.142C63.5533 155.134 64.5433 156.111 64.5513 157.325C64.5513 157.336 64.5513 157.347 64.5513 157.359C64.5433 158.56 63.5697 159.531 62.3685 159.536Z" fill="#FAFAFA"/>
<path d="M29.7729 190.705H27.5902V184.49H32.0617L29.7729 190.705Z" fill="#F0F0F0"/>
<path d="M133.108 40.597H111.712V61.9931H133.108V40.597Z" fill="#EBEBEB"/>
<path d="M134.057 40.6005H133.108V61.997H134.057V40.6005Z" fill="#E0E0E0"/>
<path d="M130.211 43.4979H114.613V59.0957H130.211V43.4979Z" fill="white"/>
<path d="M125.021 53.9055C123.58 55.3472 121.243 55.3472 119.801 53.9055C118.359 52.4638 118.359 50.1267 119.801 48.685C121.243 47.2433 123.58 47.2433 125.021 48.685C126.463 50.1267 126.463 52.4643 125.021 53.9055Z" fill="#F5F5F5"/>
<path d="M112.149 68.1055H87.0634V93.1908H112.149V68.1055Z" fill="#EBEBEB"/>
<path d="M113.26 68.1095H112.149V93.1947H113.26V68.1095Z" fill="#E0E0E0"/>
<path d="M108.752 71.5069H90.4647V89.794H108.752V71.5069Z" fill="white"/>
<path d="M103.505 76.7488H95.7061V84.5475H103.505V76.7488Z" fill="#F5F5F5"/>
<path d="M224.348 60.0404H210.767V63.2142H224.348V60.0404Z" fill="#E6E6E6"/>
<path d="M210.767 60.0404H154.554V63.2142H210.767V60.0404Z" fill="#F5F5F5"/>
<path d="M186.497 43.1951H170.672V60.0409H186.497V43.1951Z" fill="#E0E0E0"/>
<path d="M170.672 43.1951H166.618V60.0409H170.672V43.1951Z" fill="#F0F0F0"/>
<path d="M190.646 40.597H178.759V60.0404H190.646V40.597Z" fill="#E6E6E6"/>
<path d="M178.764 40.597H175.327V60.0404H178.764V40.597Z" fill="#F0F0F0"/>
<path d="M192.283 43.1951H182.261V60.0409H192.283V43.1951Z" fill="#F0F0F0"/>
<path d="M182.261 43.1951H179.971V60.0409H182.261V43.1951Z" fill="#FAFAFA"/>
<path d="M203.61 46.0456H190.464V60.0409H203.61V46.0456Z" fill="#E6E6E6"/>
<path d="M190.464 46.0456H187.098V60.0409H190.464V46.0456Z" fill="#FAFAFA"/>
<path d="M207.057 43.8873H197.181V60.0404H207.057V43.8873Z" fill="#E6E6E6"/>
<path d="M197.186 43.8873H194.331V60.0404H197.186V43.8873Z" fill="#F0F0F0"/>
<path d="M209.685 46.0456H200.092V60.0409H209.685V46.0456Z" fill="#F0F0F0"/>
<path d="M200.087 46.0456H198.187V60.0409H200.087V46.0456Z" fill="#FAFAFA"/>
<path d="M202.731 154.093C206.985 148.532 217.11 146.465 220.61 142.961C225.193 138.363 225.169 131.467 221.268 128.979C217.88 126.816 206.647 141.441 205.384 143.072C201.028 148.691 199.77 152.863 198.952 156.9C199.044 153.469 199.135 150.313 199.208 147.884C199.445 139.946 199.74 137.396 199.876 136.612C200.36 136.225 200.902 135.779 201.221 135.542C203.941 133.514 209.967 131.099 212.982 128.157C217.381 123.854 216.67 118.705 213.582 116.788C210.359 114.785 204.653 119.523 201.623 124.218C198.593 128.912 199.891 133.413 199.044 137.285C198.864 138.05 198.681 140.954 198.511 144.985C197.795 141.015 195.6 137.464 192.369 135.049C188.198 131.72 184.597 127.669 181.16 128.191C177.724 128.714 179.592 134.076 182.293 137.841C184.713 141.195 196.662 144.54 198.419 147.235C198.211 152.694 198.027 159.61 197.896 166.052C196.953 162.727 197.601 162.447 193.744 157.341C191.45 154.311 182.041 150.565 180.923 152.656C179.805 154.747 181.504 158.672 185.056 161.426C187.921 163.647 194.252 163.642 195.747 165.022C196.091 165.341 197.223 166.576 197.872 167.287C197.717 175.147 197.649 182.087 197.726 184.453L198.341 184.478C198.312 183.868 198.384 179.87 198.505 174.575C200.049 171.759 210.44 170.113 213.649 167.185C217.008 164.121 219.418 160.545 217.981 158.149C216.78 156.15 207.333 158.865 203.461 162.176C200.901 164.378 199.338 166.73 198.622 169.891C198.709 166.285 198.811 162.413 198.907 158.759C199.677 157.858 201.453 155.758 202.731 154.093Z" fill="#E6E6E6"/>
<path d="M203.636 190.599H192.848C192.258 190.599 191.75 189.835 191.634 188.765L190.869 181.786H205.616L204.851 188.765C204.73 189.835 204.227 190.599 203.636 190.599Z" fill="#F0F0F0"/>
<path d="M205.925 184.492H190.559C190.191 184.492 189.881 183.984 189.843 183.306L189.528 178.147C189.48 177.353 189.814 176.661 190.244 176.661H206.24C206.67 176.661 207.004 177.353 206.956 178.147L206.641 183.306C206.603 183.983 206.293 184.492 205.925 184.492Z" fill="#F0F0F0"/>
<path d="M124.5 212.925C177.827 212.925 221.057 210.401 221.057 207.288C221.057 204.174 177.827 201.65 124.5 201.65C71.1729 201.65 27.9428 204.174 27.9428 207.288C27.9428 210.401 71.1729 212.925 124.5 212.925Z" fill="#F5F5F5"/>
<path d="M106.817 77.5296C105.714 80.2024 99.2374 80.0231 92.4467 77.2219C85.656 74.4206 81.0445 69.9829 82.1471 67.3107C82.4026 66.6912 83.1152 64.3779 83.8791 64.0557C86.41 62.9885 91.2226 65.3919 96.4392 67.5437C101.295 69.5467 106.844 70.834 107.706 73.4719C108.228 75.0715 107.131 76.7682 106.817 77.5296Z" fill="#407BFF"/>
<path opacity="0.2" d="M107.707 73.4714C108.12 75.5685 107.211 76.5725 106.817 77.5291C106.411 78.5157 105.275 79.1118 103.665 79.3334C103.471 79.3653 103.268 79.3847 103.059 79.4006C101.979 79.4808 100.728 79.418 99.3654 79.2079C99.1906 79.1865 99.0178 79.1536 98.84 79.1227C97.5074 78.8926 96.0831 78.5246 94.6135 78.0356C94.4547 77.9828 94.2943 77.925 94.1344 77.8673C93.5782 77.6716 93.011 77.4589 92.4467 77.2238C91.8845 76.9938 91.3377 76.7478 90.8038 76.4923C90.6499 76.4221 90.499 76.3454 90.3501 76.2737C89.0125 75.6103 87.7979 74.8912 86.7282 74.1507C86.5873 74.0556 86.4553 73.957 86.3203 73.8648C85.2073 73.0546 84.2691 72.219 83.5619 71.4022C83.4384 71.2643 83.3259 71.1283 83.2178 70.9909C82.1456 69.6328 81.7238 68.3405 82.1476 67.3117C82.4225 66.6458 83.0236 64.3799 83.8761 64.0542C84.7302 63.7335 85.8293 63.7779 87.1017 64.0488C87.2655 64.0846 87.4349 64.1235 87.6067 64.1668C90.1196 64.8027 93.2336 66.222 96.4367 67.5437C100.215 69.1025 104.682 70.719 106.869 72.5875C107.005 72.7 107.127 72.8175 107.245 72.9361C107.423 73.1139 107.574 73.2897 107.707 73.4714Z" fill="black"/>
<g opacity="0.2">
<path d="M87.8372 63.751L87.6062 64.1668L83.5619 71.4022C83.4384 71.2643 83.3259 71.1283 83.2178 70.9909L87.1012 64.0493L87.402 63.5109L87.8372 63.751Z" fill="black"/>
</g>
<g opacity="0.2">
<path d="M90.895 66.6976L86.7282 74.1512C86.5873 74.0561 86.4553 73.9575 86.3203 73.8653L90.4637 66.4511L90.895 66.6976Z" fill="black"/>
</g>
<g opacity="0.2">
<path d="M98.5587 70.9789L94.613 78.0351C94.4542 77.9823 94.2938 77.9245 94.1339 77.8667L98.1224 70.7334L98.5587 70.9789Z" fill="black"/>
</g>
<g opacity="0.2">
<path d="M94.996 68.9889L90.8033 76.4928C90.6494 76.4226 90.4985 76.3459 90.3496 76.2742L94.5597 68.7439L94.996 68.9889Z" fill="black"/>
</g>
<g opacity="0.2">
<path d="M103.206 72.3429L99.3649 79.2079C99.1901 79.1864 99.0173 79.1536 98.8396 79.1227L102.769 72.0979L103.206 72.3429Z" fill="black"/>
</g>
<path d="M107.678 75.1791C106.575 77.8518 100.176 77.7472 93.3854 74.946C86.5947 72.1447 81.9832 67.7076 83.0853 65.0348C84.1879 62.362 90.5867 62.4666 97.3774 65.2679C104.168 68.0696 108.78 72.5068 107.678 75.1791Z" fill="#407BFF"/>
<path opacity="0.2" d="M105.369 74.2269C104.59 76.1153 99.602 75.8489 94.2276 73.6318C88.8532 71.4147 85.1281 68.087 85.907 66.1986C86.6859 64.3102 91.6738 64.5766 97.0483 66.7937C102.423 69.0108 106.148 72.3385 105.369 74.2269Z" fill="white"/>
<path d="M141.14 53.3577C142.91 55.6435 139.533 61.1733 133.725 65.6712C127.917 70.1692 121.774 71.9625 120.004 69.6771C119.593 69.1473 117.941 67.3784 118.041 66.5557C118.375 63.8291 122.853 60.8496 127.315 57.3945C131.468 54.1784 135.344 50.0046 138.062 50.5689C139.709 50.911 140.635 52.7063 141.14 53.3577Z" fill="#407BFF"/>
<path opacity="0.2" d="M138.062 50.5664C140.086 51.2517 140.505 52.5395 141.138 53.3577C141.792 54.2008 141.744 55.4827 141.136 56.9891C141.067 57.1734 140.983 57.3591 140.893 57.5489C140.425 58.5249 139.748 59.5797 138.888 60.6574C138.783 60.7983 138.668 60.9323 138.553 61.0707C137.691 62.112 136.663 63.1653 135.507 64.1967C135.382 64.3082 135.253 64.4183 135.123 64.5288C134.677 64.9143 134.209 65.3002 133.725 65.6727C133.246 66.0462 132.761 66.3978 132.274 66.734C132.136 66.8326 131.995 66.9252 131.858 67.0188C130.617 67.8495 129.389 68.5452 128.215 69.105C128.062 69.1801 127.911 69.2454 127.764 69.3166C126.508 69.8793 125.316 70.2777 124.256 70.4844C124.075 70.5233 123.901 70.5531 123.728 70.578C122.017 70.8325 120.686 70.5561 120.004 69.6767C119.563 69.1069 117.897 67.4581 118.038 66.5567C118.184 65.6563 118.769 64.725 119.638 63.7559C119.75 63.6319 119.868 63.5034 119.991 63.3765C121.792 61.5129 124.573 59.517 127.313 57.396C130.544 54.8935 134.168 51.8224 136.877 50.8542C137.043 50.792 137.205 50.7442 137.367 50.7019C137.61 50.6356 137.838 50.5913 138.062 50.5664Z" fill="black"/>
<g opacity="0.2">
<path d="M119.746 62.9695L119.992 63.3769L124.256 70.4844C124.076 70.5232 123.901 70.5531 123.729 70.578L119.638 63.7564L119.321 63.2275L119.746 62.9695Z" fill="black"/>
</g>
<g opacity="0.2">
<path d="M123.823 61.7823L128.216 69.1044C128.063 69.1796 127.912 69.2449 127.765 69.3161L123.394 62.0338L123.823 61.7823Z" fill="black"/>
</g>
<g opacity="0.2">
<path d="M131.349 57.2635L135.508 64.1961C135.383 64.3077 135.253 64.4178 135.123 64.5283L130.919 57.52L131.349 57.2635Z" fill="black"/>
</g>
<g opacity="0.2">
<path d="M127.85 59.3646L132.274 66.734C132.137 66.8326 131.995 66.9252 131.859 67.0188L127.42 59.621L127.85 59.3646Z" fill="black"/>
</g>
<g opacity="0.2">
<path d="M134.843 53.9109L138.889 60.6574C138.783 60.7983 138.669 60.9323 138.554 61.0707L134.414 54.1674L134.843 53.9109Z" fill="black"/>
</g>
<path d="M132.214 63.7238C138.022 59.2259 141.295 53.7268 139.525 51.4412C137.755 49.1556 131.612 50.9491 125.804 55.4471C119.996 59.945 116.723 65.4441 118.493 67.7297C120.263 70.0153 126.406 68.2218 132.214 63.7238Z" fill="#407BFF"/>
<path opacity="0.2" d="M137.554 52.9712C138.805 54.5862 136.092 58.7809 131.496 62.3406C126.9 65.9003 122.16 67.4765 120.909 65.8615C119.659 64.2464 122.371 60.0518 126.967 56.4921C131.564 52.9324 136.303 51.3562 137.554 52.9712Z" fill="white"/>
<path d="M117.097 42.6487C116.514 45.926 109.183 47.3164 100.854 45.8344C92.5264 44.3518 86.2476 40.4933 86.8308 37.2155C86.9662 36.4555 87.1993 33.6777 87.9792 33.1279C90.5638 31.3052 96.5692 32.8266 102.966 33.965C108.921 35.0248 115.481 35.1095 117.098 37.8654C118.08 39.5362 117.264 41.7144 117.097 42.6487Z" fill="#407BFF"/>
<path opacity="0.2" d="M117.102 37.8639C118.081 40.1218 117.306 41.4744 117.097 42.6477C116.883 43.8573 115.751 44.807 113.995 45.4519C113.785 45.5356 113.561 45.6073 113.329 45.6765C112.135 46.0316 110.711 46.2687 109.127 46.3673C108.925 46.3862 108.722 46.3917 108.515 46.4006C106.959 46.4694 105.266 46.4056 103.492 46.2164C103.301 46.1959 103.106 46.1706 102.912 46.1447C102.238 46.0615 101.547 45.9614 100.855 45.8354C100.166 45.7144 99.4909 45.5725 98.8276 45.4166C98.6373 45.3752 98.4486 45.3264 98.2633 45.2821C96.5955 44.8648 95.0522 44.3538 93.6668 43.7836C93.4845 43.7109 93.3122 43.6327 93.1379 43.562C91.6863 42.9246 90.4258 42.2149 89.4298 41.4694C89.257 41.3449 89.0967 41.2194 88.9418 41.091C87.402 39.827 86.6096 38.4769 86.8333 37.215C86.9787 36.3983 87.0987 33.7016 87.9777 33.1259C88.8596 32.5552 90.1066 32.3351 91.6046 32.3271C91.7973 32.3271 91.998 32.3291 92.2017 32.3356C95.1847 32.4337 99.0372 33.2644 102.965 33.9646C107.599 34.7893 113.022 35.5099 115.941 37.0746C116.123 37.1677 116.288 37.2698 116.45 37.3749C116.694 37.5317 116.907 37.6921 117.102 37.8639Z" fill="black"/>
<g opacity="0.2">
<path d="M92.3586 31.8122L92.2012 32.3366L89.4293 41.4704C89.2565 41.3459 89.0962 41.2204 88.9413 41.092L91.6041 32.3281L91.8103 31.6484L92.3586 31.8122Z" fill="black"/>
</g>
<g opacity="0.2">
<path d="M96.5223 34.3754L93.6663 43.7846C93.484 43.7119 93.3117 43.6337 93.1374 43.563L95.9765 34.2036L96.5223 34.3754Z" fill="black"/>
</g>
<g opacity="0.2">
<path d="M106.196 37.3087L103.492 46.2169C103.3 46.1965 103.106 46.1711 102.911 46.1452L105.645 37.1398L106.196 37.3087Z" fill="black"/>
</g>
<g opacity="0.2">
<path d="M101.7 35.9451L98.8271 45.4171C98.6369 45.3758 98.4481 45.327 98.2629 45.2826L101.148 35.7763L101.7 35.9451Z" fill="black"/>
</g>
<g opacity="0.2">
<path d="M111.76 37.7011L109.126 46.3677C108.925 46.3867 108.722 46.3921 108.514 46.4011L111.209 37.5322L111.76 37.7011Z" fill="black"/>
</g>
<path d="M117.483 39.7937C118.066 36.5162 111.787 32.6578 103.459 31.1758C95.1308 29.6937 87.9066 31.1491 87.3234 34.4266C86.7401 37.7041 93.0186 41.5624 101.347 43.0445C109.675 44.5266 116.899 43.0711 117.483 39.7937Z" fill="#407BFF"/>
<path opacity="0.2" d="M114.657 39.2887C114.244 41.6044 108.567 42.5307 101.976 41.3574C95.3854 40.1841 90.377 37.356 90.7889 35.0403C91.2007 32.7246 96.8779 31.7983 103.469 32.9711C110.06 34.1449 115.069 36.973 114.657 39.2887Z" fill="white"/>
<path d="M160.575 126.307L109.327 129.288C107.51 129.394 105.727 129.829 104.067 130.573L48.3991 155.492C46.3782 156.396 45.2607 158.564 45.7134 160.701L54.9234 204.197C55.5554 207.181 58.8825 208.753 61.6479 207.372L116.592 179.943L167.326 178.228C169.991 178.138 171.98 175.755 171.557 173.159L164.766 131.506C164.416 129.355 162.784 126.241 160.575 126.307Z" fill="#407BFF"/>
<path opacity="0.1" d="M160.575 126.307L109.327 129.288C107.51 129.394 105.727 129.829 104.067 130.573L48.3991 155.492C46.3782 156.396 45.2607 158.564 45.7134 160.701L54.9234 204.197C55.5554 207.181 58.8825 208.753 61.6479 207.372L116.592 179.943L167.326 178.228C169.991 178.138 171.98 175.755 171.557 173.159L164.766 131.506C164.416 129.355 162.784 126.241 160.575 126.307Z" fill="black"/>
<path d="M57.7007 97.9925L30.8049 122.781L79.0622 175.14L105.958 150.351L57.7007 97.9925Z" fill="#407BFF"/>
<path opacity="0.5" d="M105.964 150.348L79.069 175.137L30.8108 122.781L48.4604 106.511L57.7062 97.9875L59.2481 99.6588L105.964 150.348Z" fill="#FAFAFA"/>
<path d="M57.8759 101.194L34.1424 123.068L79.2836 172.046L103.017 150.172L57.8759 101.194Z" stroke="#407BFF" stroke-miterlimit="10"/>
<path d="M73.9316 142.405C76.6529 139.897 76.3087 135.097 73.1628 131.684C70.017 128.271 65.2608 127.538 62.5395 130.047C59.8182 132.555 60.1624 137.355 63.3082 140.768C66.4541 144.181 71.2103 144.914 73.9316 142.405Z" fill="#407BFF"/>
<path opacity="0.1" d="M78.7821 153.889L69.2255 157.191L48.4604 106.511L57.7062 97.9875L59.248 99.6588L78.7821 153.889Z" fill="black"/>
<path d="M80.6362 77.4757L46.2492 89.9415L70.5167 156.884L104.904 144.418L80.6362 77.4757Z" fill="#407BFF"/>
<path opacity="0.5" d="M80.6362 77.4757L46.2492 89.9415L70.5167 156.884L104.904 144.418L80.6362 77.4757Z" fill="#FAFAFA"/>
<path d="M79.56 80.4958L49.216 91.496L71.9165 154.116L102.26 143.115L79.56 80.4958Z" stroke="#407BFF" stroke-miterlimit="10"/>
<path d="M78.4226 124.71C81.9018 123.449 83.4401 118.889 81.8583 114.526C80.2766 110.163 76.1738 107.648 72.6946 108.909C69.2154 110.17 67.6772 114.73 69.2589 119.093C70.8407 123.456 74.9434 125.971 78.4226 124.71Z" fill="#407BFF"/>
<path d="M160.909 128.075L110.362 130.923C108.57 131.024 106.812 131.454 105.177 132.193L50.3274 156.955C48.3364 157.854 47.2393 160.018 47.6915 162.155L56.8895 205.654C57.521 208.639 60.8068 210.217 63.5314 208.844L117.66 181.571L167.703 179.988C170.332 179.905 172.288 177.528 171.864 174.932L165.057 133.283C164.706 131.132 163.088 128.015 160.909 128.075Z" fill="#407BFF"/>
<path opacity="0.2" d="M112.419 138.545L155.787 135.872" stroke="black" stroke-width="2" stroke-miterlimit="10" stroke-linecap="round" stroke-linejoin="round"/>
<path opacity="0.2" d="M107.223 139.666L115.148 176.059" stroke="black" stroke-width="2" stroke-miterlimit="10" stroke-linecap="round" stroke-linejoin="round"/>
<path opacity="0.2" d="M54.3965 172.522L59.9836 200.517C59.9836 200.517 64.2669 189.408 54.3965 172.522Z" fill="#FAFAFA"/>
<path opacity="0.2" d="M55.1296 172.851C55.3213 173.361 104.757 152.135 104.757 152.135C104.757 152.135 106.008 167.394 91.131 175.739C76.2538 184.083 55.1296 172.851 55.1296 172.851Z" fill="#FAFAFA"/>
<path d="M87.9677 173.676C89.1504 173.676 90.1091 172.717 90.1091 171.535C90.1091 170.352 89.1504 169.393 87.9677 169.393C86.785 169.393 85.8263 170.352 85.8263 171.535C85.8263 172.717 86.785 173.676 87.9677 173.676Z" fill="#407BFF"/>
<path opacity="0.2" d="M104.783 152.135C104.783 152.135 110.915 161.36 109.432 177.08L104.783 152.135Z" fill="black"/>
<g opacity="0.2">
<path d="M52.031 161.526L53.17 161.023" stroke="#FAFAFA" stroke-linecap="round" stroke-linejoin="round"/>
<path d="M55.5375 159.977L101.702 139.571" stroke="#FAFAFA" stroke-linecap="round" stroke-linejoin="round" stroke-dasharray="5.2 5.2"/>
<path d="M102.886 139.048L104.024 138.545" stroke="#FAFAFA" stroke-linecap="round" stroke-linejoin="round"/>
</g>
<path opacity="0.2" d="M113.873 146.725L157.242 144.052" stroke="black" stroke-width="2" stroke-miterlimit="10" stroke-linecap="round" stroke-linejoin="round"/>
<path opacity="0.2" d="M115.825 156.928L159.194 154.255" stroke="black" stroke-width="2" stroke-miterlimit="10" stroke-linecap="round" stroke-linejoin="round"/>
<path d="M149.69 84.4393C149.69 84.4393 148.598 96.0597 144.283 97.0606C139.966 98.0616 136.319 96.2653 136.319 96.2653L132.809 93.5652L131.096 99.5352C131.096 99.5352 132.969 102.081 136.876 100.316C136.876 100.316 143.844 103.387 147.701 100.316C151.559 97.2449 152.793 88.8342 152.793 88.8342L149.69 84.4393Z" fill="#B97964"/>
<path d="M153.161 78.8115C153.161 78.8115 150.149 73.6776 151.518 64.368C152.887 55.0584 160.691 53.895 163.703 54.5793C166.714 55.2635 169.179 58.1479 171.232 63.6538C173.286 69.1592 174.039 70.597 177.461 69.6388C180.884 68.6806 189.988 65.6687 192.521 68.338C195.054 71.0078 194.232 74.0197 194.232 74.0197C194.232 74.0197 206.896 70.9396 205.8 82.2337C204.705 93.5284 186.428 104.07 169.042 92.9123C151.655 81.7546 153.161 78.8115 153.161 78.8115Z" fill="#263238"/>
<path d="M153.02 106.147C153.02 106.147 149.578 135.745 149.693 149.626C149.807 163.507 154.741 196.202 154.741 196.202H160.821C160.821 196.202 160.017 170.047 160.132 161.098C160.247 152.149 161.853 137.351 161.853 137.351C161.853 137.351 163.803 150.658 166.097 155.362C168.392 160.066 181.126 176.7 189.959 181.863L194.089 178.077C194.089 178.077 184.911 166.719 181.47 161.098C178.028 155.477 174.93 153.87 173.669 143.431C172.407 132.991 174.586 116.242 170.915 106.147H153.02Z" fill="#263238"/>
<path opacity="0.2" d="M161.853 137.351L159.209 118.592C159.209 118.592 157.123 129.871 161.234 143.641L161.853 137.351Z" fill="black"/>
<path d="M155.988 197.87L156.191 203.682L160.27 204.022L160.474 203.478V197.462L155.988 197.87Z" fill="#B97964"/>
<path d="M154.05 195.661L154.424 197.836L161.426 198.006L161.867 195.389L154.05 195.661Z" fill="#407BFF"/>
<path d="M188.039 182.27L194.53 176.22L195.958 178.497L190.384 183.595L188.039 182.27Z" fill="#407BFF"/>
<path d="M191.166 182.27L195.448 185.873L198.201 182.643L194.683 179.007L191.166 182.27Z" fill="#B97964"/>
<path d="M199.031 182.391L201.621 183.987C202.125 184.297 202.228 184.986 201.835 185.428C199.955 187.546 195.16 192.934 194.683 193.316C194.089 193.792 193.374 192.976 193.205 192.228C193.205 192.228 194.564 190.427 194.683 189.271C194.771 188.421 194.729 187.185 194.702 186.591C194.691 186.366 194.767 186.148 194.913 185.978L197.808 182.584C198.112 182.227 198.632 182.145 199.031 182.391Z" fill="#263238"/>
<path d="M161.266 204.172L161.805 207.166C161.909 207.748 161.465 208.284 160.873 208.286C158.041 208.299 150.829 208.32 150.226 208.219C149.475 208.093 149.607 207.017 150.05 206.392C150.05 206.392 152.299 206.203 153.24 205.521C153.931 205.019 154.825 204.164 155.25 203.747C155.41 203.589 155.623 203.501 155.847 203.495L160.306 203.389C160.776 203.378 161.183 203.71 161.266 204.172Z" fill="#263238"/>
<path d="M171.568 89.7356L177.784 85.3716C177.784 85.3716 176.131 78.7597 173.684 78.4295C171.238 78.0988 159.072 75.7846 151.336 78.4295C151.336 78.4295 148.559 79.2228 147.7 87.025L151.006 88.0827C151.006 88.0827 152.196 102.695 152.923 104.943H170.576C170.577 104.943 170.775 92.3805 171.568 89.7356Z" fill="#407BFF"/>
<path d="M172.911 88.7929C172.911 88.7929 175.264 95.5169 175.685 99.1298C175.685 99.1298 170.085 96.9018 168.64 95.8784L167.549 91.9442L163.823 90.1579L162.742 93.1085L165.81 96.9621C165.81 96.9621 174.238 104.85 178.514 103.044C182.79 101.237 176.823 86.0464 176.823 86.0464L172.911 88.7929Z" fill="#B97964"/>
<path d="M157.097 59.3546C157.097 59.3546 154.944 63.6598 155.124 67.1578C155.303 70.6557 157.052 72.0909 160.416 72.5845C160.416 72.5845 161.851 77.069 158.084 77.5177C157.797 77.5515 157.694 78.6944 157.719 78.8777C157.816 79.6063 158.537 80.0027 159.189 80.1725C159.887 80.3548 160.63 80.3876 161.349 80.411C162.961 80.4633 164.289 79.8124 165.365 78.6237C165.448 78.5326 166.202 77.563 166.202 77.563C166.202 77.563 164.407 76.6725 165.036 70.836C165.036 70.836 166.246 70.1632 166.919 68.5039C166.919 68.5039 168.085 67.9207 168.354 66.7549C168.623 65.5891 167.592 63.9745 165.708 65.5891C165.708 65.5891 162.166 63.7953 160.82 57.5165C160.82 57.5165 159.429 59.0857 157.097 59.3546Z" fill="#B97964"/>
<path d="M158.109 66.2056L158.416 63.9033L156.785 65.7071C156.785 65.7071 157.303 66.3012 158.109 66.2056Z" fill="#A24E3F"/>
<path d="M159.056 67.8893C159.056 67.8893 160.776 68.1523 161.6 67.0492" stroke="#222221" stroke-width="0.75" stroke-miterlimit="10" stroke-linecap="round" stroke-linejoin="round"/>
<path d="M160.776 60.6798C160.776 60.6798 161.869 60.2575 163.001 61.2744" stroke="#222221" stroke-miterlimit="10" stroke-linecap="round" stroke-linejoin="round"/>
<path d="M157.802 60.1808C157.802 60.1808 156.823 60.0264 156.363 60.5926" stroke="#222221" stroke-miterlimit="10" stroke-linecap="round" stroke-linejoin="round"/>
<path d="M161.468 63.7081C161.422 64.0552 161.199 64.3117 160.968 64.2818C160.737 64.2519 160.587 63.9462 160.632 63.5996C160.677 63.2525 160.901 62.996 161.131 63.0259C161.362 63.0562 161.512 63.3615 161.468 63.7081Z" fill="#222221"/>
<path d="M157.5 62.9467C157.456 63.2938 157.232 63.5502 157.001 63.5203C156.77 63.4905 156.62 63.1847 156.665 62.8381C156.71 62.491 156.934 62.2345 157.164 62.2644C157.395 62.2943 157.546 62.5995 157.5 62.9467Z" fill="#222221"/>
<path d="M161.131 63.0258L160.345 62.6832C160.345 62.6832 160.507 63.3924 161.131 63.0258Z" fill="#222221"/>
<path d="M157.23 62.2893L156.444 61.9467C156.444 61.9467 156.606 62.6559 157.23 62.2893Z" fill="#222221"/>
<path d="M152.31 104.166V106.242L171.429 106.404L170.92 103.931L152.31 104.166Z" fill="#407BFF"/>
<path opacity="0.4" d="M152.31 104.166V106.242L171.429 106.404L170.92 103.931L152.31 104.166Z" fill="white"/>
<path d="M152.541 94.0856L142.027 130.672C141.285 133.258 139.052 135.009 136.538 135.26C135.757 135.336 134.945 135.271 134.138 135.041L114.016 129.258C110.633 128.283 108.677 124.751 109.647 121.369L120.165 84.7765C120.731 82.8194 122.148 81.3378 123.906 80.6287C125.179 80.1123 126.629 80.0027 128.056 80.4125L148.177 86.1903C151.56 87.1659 153.515 90.6977 152.541 94.0856Z" fill="#407BFF"/>
<path opacity="0.2" d="M152.541 94.0856L142.027 130.672C141.285 133.258 139.052 135.009 136.538 135.26C135.757 135.336 134.945 135.271 134.138 135.041L114.016 129.258C110.633 128.283 108.677 124.751 109.647 121.369L120.165 84.7765C120.731 82.8194 122.148 81.3378 123.906 80.6287C125.179 80.1123 126.629 80.0027 128.056 80.4125L148.177 86.1903C151.56 87.1659 153.515 90.6977 152.541 94.0856Z" fill="black"/>
<path d="M150.792 94.5209L140.278 131.107C139.713 133.07 138.291 134.552 136.538 135.26C135.757 135.336 134.945 135.272 134.138 135.041L114.016 129.258C110.633 128.283 108.677 124.751 109.647 121.37L120.165 84.777C120.731 82.8199 122.148 81.3383 123.906 80.6292C124.688 80.553 125.499 80.6177 126.306 80.8483L146.427 86.6261C149.81 87.6012 151.766 91.133 150.792 94.5209Z" fill="#407BFF"/>
<path opacity="0.5" d="M150.792 94.5209L140.278 131.107C139.713 133.07 138.291 134.552 136.538 135.26C135.757 135.336 134.945 135.272 134.138 135.041L114.016 129.258C110.633 128.283 108.677 124.751 109.647 121.37L120.165 84.777C120.731 82.8199 122.148 81.3383 123.906 80.6292C124.688 80.553 125.499 80.6177 126.306 80.8483L146.427 86.6261C149.81 87.6012 151.766 91.133 150.792 94.5209Z" fill="#FAFAFA"/>
<path d="M122.522 97.6216L120.369 97.015L112.625 124.498L114.778 125.104L122.522 97.6216Z" fill="#FAFAFA"/>
<path d="M117.86 125.987L115.71 125.369L123.452 97.8914L125.602 98.5094L117.86 125.987Z" fill="#FAFAFA"/>
<path d="M120.989 126.886L118.839 126.268L126.581 98.7908L128.731 99.4088L120.989 126.886Z" fill="#FAFAFA"/>
<path opacity="0.5" d="M141.267 103.006L139.113 102.399L131.37 129.882L133.523 130.488L141.267 103.006Z" fill="black"/>
<path d="M140.984 95.2425L139.913 98.9725L138.638 98.614C137.353 98.2504 136.606 96.9158 136.965 95.6309L137.662 93.1559L140.237 93.8929C140.814 94.0622 141.148 94.6648 140.984 95.2425Z" fill="#FAFAFA"/>
<path d="M140.371 93.4148L137.797 92.6778L138.568 89.9488C138.927 88.6639 140.267 87.9169 141.552 88.2755L142.876 88.649L141.721 92.6678C141.556 93.2505 140.954 93.5842 140.371 93.4148Z" fill="#FAFAFA"/>
<path d="M142.811 94.6349L145.401 95.3769L144.714 97.8122C144.355 99.097 143.021 99.849 141.736 99.4854L140.391 99.1069L141.462 95.3819C141.626 94.8042 142.229 94.4706 142.811 94.6349Z" fill="#FAFAFA"/>
<path d="M146.317 92.13L145.536 94.8989L142.946 94.1568C142.368 93.9875 142.035 93.3849 142.199 92.8073L143.354 88.7884L144.644 89.1519C145.929 89.5105 146.676 90.8451 146.317 92.13Z" fill="#FAFAFA"/>
</svg>
