<svg width="1280" height="665" viewBox="0 0 1280 665" fill="none" xmlns="http://www.w3.org/2000/svg">
<mask id="mask0_332_210" style="mask-type:luminance" maskUnits="userSpaceOnUse" x="-54" y="0" width="1592" height="665">
<path d="M-54 0.405273H1538V664.282H-54V0.405273Z" fill="white"/>
</mask>
<g mask="url(#mask0_332_210)">
<path d="M2215.46 32.9091C2215.46 14.8933 2206.54 0.360898 2195.74 0.871199C2020.84 9.23566 2014.27 128.646 1826.71 128.646C1632.33 128.646 1632.33 0.405273 1437.96 0.405273C1243.58 0.405273 1243.58 128.646 1049.21 128.646C854.848 128.646 854.848 0.405273 660.473 0.405273C466.111 0.405273 466.111 128.646 271.737 128.646C84.1738 128.646 77.6144 9.23566 -97.2818 0.871199C-108.086 0.360898 -117 14.8933 -117 32.9091V630.846C-117 648.551 -108.392 662.906 -97.7741 662.906H2196.23C2206.85 662.906 2215.46 648.551 2215.46 630.846V32.9091Z" fill="#133C74"/>
</g>
</svg>
